<svg width="92" height="16" viewBox="0 0 92 16" fill="none" xmlns="http://www.w3.org/2000/svg">
<g id="Group 81">
<path id="Star 1" d="M7.9149 0L9.6919 5.46906H15.4424L10.7901 8.84912L12.5672 14.3182L7.9149 10.9381L3.26264 14.3182L5.03964 8.84912L0.387383 5.46906H6.13789L7.9149 0Z" fill="#FFCD3E"/>
<path id="Star 5" d="M83.2342 0L85.0112 5.46906H90.7617L86.1095 8.84912L87.8865 14.3182L83.2342 10.9381L78.582 14.3182L80.359 8.84912L75.7067 5.46906H81.4572L83.2342 0Z" fill="#FFCD3E"/>
<path id="Star 2" d="M26.745 0L28.522 5.46906H34.2725L29.6202 8.84912L31.3972 14.3182L26.745 10.9381L22.0927 14.3182L23.8697 8.84912L19.2175 5.46906H24.968L26.745 0Z" fill="#FFCD3E"/>
<path id="Star 3" d="M45.5741 0L47.3511 5.46906H53.1016L48.4493 8.84912L50.2263 14.3182L45.5741 10.9381L40.9218 14.3182L42.6988 8.84912L38.0466 5.46906H43.7971L45.5741 0Z" fill="#FFCD3E"/>
<path id="Star 4" d="M64.4042 0L66.1812 5.46906H71.9317L67.2794 8.84912L69.0564 14.3182L64.4042 10.9381L59.7519 14.3182L61.5289 8.84912L56.8766 5.46906H62.6271L64.4042 0Z" fill="#FFCD3E"/>
</g>
</svg>
