<svg width="49" height="34" viewBox="0 0 49 34" fill="none" xmlns="http://www.w3.org/2000/svg">
<g id="Group">
<path id="Vector" fill-rule="evenodd" clip-rule="evenodd" d="M47.9512 30.3766C40.1701 22.4438 23.4973 19.1283 12.8493 24.0895L23.9882 9.18914L29.3097 17.3258C29.3806 17.4397 29.4745 17.5386 29.5858 17.6167C29.6971 17.6948 29.8235 17.7505 29.9576 17.7805C30.0916 17.8104 30.2305 17.814 30.366 17.791C30.5015 17.7681 30.6308 17.719 30.7463 17.6467H30.7488L30.7613 17.6383C30.7632 17.6374 30.7648 17.6362 30.7663 17.6347L34.7811 15.0407C34.7811 15.0407 41.0433 21.5522 44.4723 25.109L44.4823 25.1186L44.486 25.1235L44.4873 25.1223C44.5422 25.172 44.6109 25.2052 44.6851 25.2178C44.7593 25.2303 44.8356 25.2218 44.9048 25.1931C44.974 25.1644 45.033 25.1169 45.0747 25.0563C45.1163 24.9957 45.1388 24.9247 45.1393 24.852C45.1393 24.7893 45.1218 24.7313 45.0931 24.6795L45.0944 24.6783C43.0832 21.2795 39.4868 15.2651 36.4925 10.2846C35.9791 9.43647 35.3757 9.30135 34.4976 9.85754L31.7844 11.6576L24.9413 1.44217L24.9051 1.38908L24.8939 1.3734H24.8914C24.7825 1.22864 24.6398 1.11078 24.4748 1.02942C24.3098 0.948072 24.1272 0.905533 23.942 0.905273C23.7713 0.905943 23.6028 0.942435 23.4481 1.01222C23.2935 1.08201 23.1564 1.18343 23.0463 1.30945H23.0413C23.0239 1.33128 23.0068 1.3534 22.9901 1.37581C22.9776 1.3915 22.9651 1.40597 22.9552 1.42166C15.3736 11.2499 7.77528 21.0661 0.160124 30.87L0.161373 30.8725C0.0694401 30.996 0.0144715 31.1415 0.00248803 31.2932C-0.00949542 31.4449 0.0219685 31.5968 0.0934337 31.7324C0.164899 31.8679 0.273609 31.9819 0.407658 32.0617C0.541706 32.1416 0.695924 32.1843 0.853419 32.1851C0.982815 32.1846 1.11029 32.1548 1.22567 32.0983L1.22817 32.1007C1.42429 32.0102 1.63291 31.9016 1.84152 31.7918C8.19984 28.6151 22.478 23.9833 32.3465 31.2863C36.6799 34.8382 51.795 34.0371 47.9512 30.3766Z" fill="#80798E"/>
</g>
</svg>
