<svg width="52" height="35" viewBox="0 0 52 35" fill="none" xmlns="http://www.w3.org/2000/svg">
<g id="Group">
<path id="Vector" fill-rule="evenodd" clip-rule="evenodd" d="M50.9341 31.3046C42.6689 22.8784 24.959 19.3567 13.6486 24.6264L25.4804 8.79918L31.133 17.442C31.2083 17.563 31.308 17.6681 31.4262 17.751C31.5444 17.834 31.6787 17.8931 31.8211 17.9249C31.9635 17.9567 32.111 17.9606 32.2549 17.9362C32.3989 17.9118 32.5363 17.8596 32.6589 17.7829H32.6616L32.6748 17.7739C32.6768 17.773 32.6786 17.7717 32.6801 17.7701L36.9447 15.0147C36.9447 15.0147 43.5964 21.9313 47.2387 25.7093L47.2493 25.7196L47.2533 25.7247L47.2547 25.7234C47.313 25.7763 47.386 25.8115 47.4648 25.8249C47.5436 25.8382 47.6247 25.8291 47.6982 25.7987C47.7717 25.7682 47.8344 25.7177 47.8786 25.6534C47.9229 25.589 47.9467 25.5136 47.9473 25.4364C47.9473 25.3697 47.9287 25.3082 47.8982 25.2531L47.8995 25.2518C45.7632 21.6417 41.9431 15.2531 38.7626 9.96283C38.2172 9.0619 37.5763 8.91836 36.6435 9.50916L33.7615 11.4212L26.4929 0.570293L26.4544 0.513905L26.4424 0.497244H26.4398C26.3241 0.34348 26.1725 0.218287 25.9973 0.131874C25.822 0.0454614 25.6281 0.000275202 25.4313 0C25.25 0.000711077 25.071 0.0394732 24.9068 0.113603C24.7425 0.187732 24.5969 0.295458 24.48 0.429322H24.4747C24.4561 0.452508 24.438 0.476007 24.4203 0.499808C24.407 0.516468 24.3937 0.531847 24.3831 0.548507C16.33 10.9882 8.25895 21.4149 0.170085 31.8288L0.171412 31.8313C0.0737597 31.9625 0.0153717 32.1172 0.0026428 32.2783C-0.0100861 32.4394 0.023335 32.6008 0.0992458 32.7448C0.175157 32.8887 0.290629 33.0098 0.433017 33.0946C0.575404 33.1794 0.739215 33.2248 0.906507 33.2257C1.04395 33.2251 1.17935 33.1935 1.30192 33.1334L1.30457 33.136C1.51289 33.0398 1.73448 32.9245 1.95607 32.8079C8.70993 29.4335 23.8762 24.5136 34.3586 32.2709C38.9616 36.0438 55.0169 35.1929 50.9341 31.3046" fill="#D8D3E2"/>
</g>
</svg>
